<?xml version="1.0" encoding="UTF-8"?>
<svg xmlns="http://www.w3.org/2000/svg" viewBox="0 0 1200 750" preserveAspectRatio="xMidYMid meet" fill="none" stroke="oklch(0.78 0.005 90)" stroke-width="2" stroke-linecap="round" stroke-linejoin="round">
  <title>thock hero — Keychron Q Ultra ZMK, 75% top-down silhouette with a wireless / battery indicator in vivid blue at the upper-right</title>

  <!-- Splash: a soft vivid-blue wash framing the case (the article's subject is wireless ZMK + 660h battery) -->
  <ellipse cx="600" cy="395" rx="500" ry="210" fill="oklch(0.7 0.13 240 / 0.16)" stroke="none"/>

  <!-- ============================================================
       75% case outline (Keychron Q3 / Q5 family — Ultra line).
       A 75% is essentially a TKL-without-numpad: function row,
       arrow cluster integrated, navigation column on the right.
       Shape: rectilinear with very lightly chamfered corners,
       reading like a CNC'd aluminum block top-down.
       ============================================================ -->
  <g>
    <!-- Outer case -->
    <path d="
      M 168 220
      L 1018 220
      L 1032 234
      L 1032 566
      L 1018 580
      L 168 580
      L 154 566
      L 154 234
      Z" />
    <!-- Inner bezel -->
    <path d="
      M 184 240
      L 1012 240
      L 1020 248
      L 1020 552
      L 1012 560
      L 184 560
      L 176 552
      L 176 248
      Z" stroke-opacity="0.5"/>
    <!-- Side weight separation lines — hint at the Ultra's CNC profile -->
    <line x1="168" y1="566" x2="1018" y2="566" stroke-opacity="0.4"/>
    <line x1="168" y1="574" x2="1018" y2="574" stroke-opacity="0.3"/>
  </g>

  <!-- ============================================================
       75% layout — six rows, 16 columns at the widest.
       Function row (smaller height) + 5 main rows.
       Row pitch: 42px keys with 4px gutters.
       Origin: x=204, y=258.
       ============================================================ -->

  <!-- Function row (compressed height: 30px) -->
  <g>
    <rect x="204" y="258" width="42" height="30" rx="3"/>
    <rect x="250" y="258" width="42" height="30" rx="3"/>
    <rect x="296" y="258" width="42" height="30" rx="3"/>
    <rect x="342" y="258" width="42" height="30" rx="3"/>
    <rect x="388" y="258" width="42" height="30" rx="3"/>
    <rect x="434" y="258" width="42" height="30" rx="3"/>
    <rect x="480" y="258" width="42" height="30" rx="3"/>
    <rect x="526" y="258" width="42" height="30" rx="3"/>
    <rect x="572" y="258" width="42" height="30" rx="3"/>
    <rect x="618" y="258" width="42" height="30" rx="3"/>
    <rect x="664" y="258" width="42" height="30" rx="3"/>
    <rect x="710" y="258" width="42" height="30" rx="3"/>
    <rect x="756" y="258" width="42" height="30" rx="3"/>
    <rect x="802" y="258" width="42" height="30" rx="3"/>
    <rect x="848" y="258" width="42" height="30" rx="3"/>
    <rect x="894" y="258" width="42" height="30" rx="3"/>
    <rect x="940" y="258" width="42" height="30" rx="3"/>
  </g>

  <!-- Row 1 — number row (15 keys + 2 nav col) -->
  <g>
    <rect x="204" y="298" width="42" height="42" rx="3"/>
    <rect x="250" y="298" width="42" height="42" rx="3"/>
    <rect x="296" y="298" width="42" height="42" rx="3"/>
    <rect x="342" y="298" width="42" height="42" rx="3"/>
    <rect x="388" y="298" width="42" height="42" rx="3"/>
    <rect x="434" y="298" width="42" height="42" rx="3"/>
    <rect x="480" y="298" width="42" height="42" rx="3"/>
    <rect x="526" y="298" width="42" height="42" rx="3"/>
    <rect x="572" y="298" width="42" height="42" rx="3"/>
    <rect x="618" y="298" width="42" height="42" rx="3"/>
    <rect x="664" y="298" width="42" height="42" rx="3"/>
    <rect x="710" y="298" width="42" height="42" rx="3"/>
    <rect x="756" y="298" width="42" height="42" rx="3"/>
    <rect x="802" y="298" width="88" height="42" rx="3"/>
    <rect x="894" y="298" width="42" height="42" rx="3"/>
    <rect x="940" y="298" width="42" height="42" rx="3"/>
  </g>

  <!-- Row 2 — qwerty row (tab + 13 + nav) -->
  <g>
    <rect x="204" y="344" width="64" height="42" rx="3"/>
    <rect x="272" y="344" width="42" height="42" rx="3"/>
    <rect x="318" y="344" width="42" height="42" rx="3"/>
    <rect x="364" y="344" width="42" height="42" rx="3"/>
    <rect x="410" y="344" width="42" height="42" rx="3"/>
    <rect x="456" y="344" width="42" height="42" rx="3"/>
    <rect x="502" y="344" width="42" height="42" rx="3"/>
    <rect x="548" y="344" width="42" height="42" rx="3"/>
    <rect x="594" y="344" width="42" height="42" rx="3"/>
    <rect x="640" y="344" width="42" height="42" rx="3"/>
    <rect x="686" y="344" width="42" height="42" rx="3"/>
    <rect x="732" y="344" width="42" height="42" rx="3"/>
    <rect x="778" y="344" width="42" height="42" rx="3"/>
    <rect x="824" y="344" width="66" height="42" rx="3"/>
    <rect x="894" y="344" width="42" height="42" rx="3"/>
    <rect x="940" y="344" width="42" height="42" rx="3"/>
  </g>

  <!-- Row 3 — caps row (caps + 12 + enter, no nav col on this row) -->
  <g>
    <rect x="204" y="390" width="76" height="42" rx="3"/>
    <rect x="284" y="390" width="42" height="42" rx="3"/>
    <rect x="330" y="390" width="42" height="42" rx="3"/>
    <rect x="376" y="390" width="42" height="42" rx="3"/>
    <rect x="422" y="390" width="42" height="42" rx="3"/>
    <rect x="468" y="390" width="42" height="42" rx="3"/>
    <rect x="514" y="390" width="42" height="42" rx="3"/>
    <rect x="560" y="390" width="42" height="42" rx="3"/>
    <rect x="606" y="390" width="42" height="42" rx="3"/>
    <rect x="652" y="390" width="42" height="42" rx="3"/>
    <rect x="698" y="390" width="42" height="42" rx="3"/>
    <rect x="744" y="390" width="42" height="42" rx="3"/>
    <rect x="790" y="390" width="42" height="42" rx="3"/>
    <rect x="836" y="390" width="100" height="42" rx="3"/>
    <rect x="940" y="390" width="42" height="42" rx="3"/>
  </g>

  <!-- Row 4 — shift row (shift + 11 + shift + up arrow + nav) -->
  <g>
    <rect x="204" y="436" width="98" height="42" rx="3"/>
    <rect x="306" y="436" width="42" height="42" rx="3"/>
    <rect x="352" y="436" width="42" height="42" rx="3"/>
    <rect x="398" y="436" width="42" height="42" rx="3"/>
    <rect x="444" y="436" width="42" height="42" rx="3"/>
    <rect x="490" y="436" width="42" height="42" rx="3"/>
    <rect x="536" y="436" width="42" height="42" rx="3"/>
    <rect x="582" y="436" width="42" height="42" rx="3"/>
    <rect x="628" y="436" width="42" height="42" rx="3"/>
    <rect x="674" y="436" width="42" height="42" rx="3"/>
    <rect x="720" y="436" width="42" height="42" rx="3"/>
    <rect x="766" y="436" width="42" height="42" rx="3"/>
    <rect x="812" y="436" width="78" height="42" rx="3"/>
    <rect x="894" y="436" width="42" height="42" rx="3"/>
    <rect x="940" y="436" width="42" height="42" rx="3"/>
  </g>

  <!-- Row 5 — bottom row (mods, spacebar, mods, arrows) -->
  <g>
    <rect x="204" y="482" width="56" height="42" rx="3"/>
    <rect x="264" y="482" width="56" height="42" rx="3"/>
    <rect x="324" y="482" width="56" height="42" rx="3"/>
    <rect x="384" y="482" width="288" height="42" rx="3"/>
    <rect x="676" y="482" width="56" height="42" rx="3"/>
    <rect x="736" y="482" width="56" height="42" rx="3"/>
    <rect x="796" y="482" width="56" height="42" rx="3"/>
    <rect x="856" y="482" width="42" height="42" rx="3"/>
    <rect x="894" y="482" width="42" height="42" rx="3"/>
    <rect x="940" y="482" width="42" height="42" rx="3"/>
  </g>

  <!-- ============================================================
       Wireless / battery indicator — focal accent painted in the
       splash hue. Sits as a small badge above the upper-right of
       the case, slightly outside the bezel like an antenna pip.
       Composition: a horizontal battery silhouette with three
       fill segments, plus a small Bluetooth glyph cradled to its
       left. The whole graphic carries the splash; the board stays
       stroke-only.
       ============================================================ -->
  <g>
    <!-- Soft halo behind the indicator cluster -->
    <ellipse cx="930" cy="170" rx="120" ry="44" fill="oklch(0.7 0.13 240 / 0.18)" stroke="none"/>

    <!-- Bluetooth glyph (left of battery) -->
    <!-- Classic BT rune: a vertical bar crossed by two diagonals forming bow-tie -->
    <g stroke="oklch(0.7 0.13 240)" stroke-width="2.5">
      <path d="M 858 152 L 882 172 L 870 182 L 870 158 L 882 168 L 858 188" fill="none" stroke-linejoin="round"/>
    </g>
    <!-- BT glyph fill ring -->
    <circle cx="870" cy="170" r="22" stroke="oklch(0.7 0.13 240 / 0.85)" stroke-width="2" fill="oklch(0.7 0.13 240 / 0.12)"/>

    <!-- Battery body — horizontal pill -->
    <rect x="906" y="150" width="100" height="40" rx="6"
          fill="oklch(0.7 0.13 240 / 0.10)" stroke="oklch(0.7 0.13 240)" stroke-width="2.5"/>
    <!-- Battery terminal (positive nub) -->
    <rect x="1006" y="160" width="8" height="20" rx="2"
          fill="oklch(0.7 0.13 240 / 0.85)" stroke="oklch(0.7 0.13 240)"/>
    <!-- Battery fill segments — three bars, full charge read for the 660h headline -->
    <rect x="912" y="156" width="28" height="28" rx="2"
          fill="oklch(0.7 0.13 240 / 0.85)" stroke="none"/>
    <rect x="944" y="156" width="28" height="28" rx="2"
          fill="oklch(0.7 0.13 240 / 0.85)" stroke="none"/>
    <rect x="976" y="156" width="24" height="28" rx="2"
          fill="oklch(0.7 0.13 240 / 0.85)" stroke="none"/>
  </g>

  <!-- Single splash-hue dot accent on the case lower-right —
       same conceptual move as the brass dot on the Sonnet hero
       and the alert-pip on the Prussian Alert hero. Reads as the
       indicator LED on the Q Ultra. -->
  <circle cx="985" cy="615" r="9" fill="oklch(0.7 0.13 240 / 0.95)" stroke="oklch(0.7 0.13 240)"/>
  <circle cx="985" cy="615" r="14" stroke-opacity="0.5" stroke="oklch(0.7 0.13 240)" fill="none"/>
</svg>
